<?xml version="1.0" encoding="UTF-8"?>
<svg xmlns="http://www.w3.org/2000/svg" id="a" width="512" height="512" viewBox="0 0 512 512">
  <defs>
    <style>.b{fill:#fff;}</style>
  </defs>
  <path class="b" d="M495.58,262.12h0s-3.83-3.83-3.83-3.83h0s-8.08-8.08-8.08-8.08c9.27-11.67,16.4-24.74,21.2-38.9,5.95-17.56,8.03-35.96,6.18-54.68-2.91-29.36-16.13-57.17-37.3-78.39l-15.2-15.2h0l-24.31-24.3c-21.13-21.04-48.9-34.22-78.2-37.12-4.34-.43-8.76-.65-13.11-.65-29.23,0-57.82,10.05-80.82,28.36l-16.29-16.29c-7.76-7.8-18.08-12.09-29.06-12.09H42.21C19.6.95,1.2,19.35,1.2,41.97v176.92c0,10.95,4.28,21.26,12.05,29.01l14.52,14.52c-9.41,11.75-16.63,24.95-21.48,39.25C.33,319.23-1.75,337.63.1,356.34c2.91,29.38,16.15,57.21,37.28,78.36l39.32,39.32c21.16,21.16,49.01,34.41,78.41,37.33,4.36.43,8.77.65,13.1.65,29.4,0,58.11-10.15,81.16-28.64l5.74,5.75h0s2.7,2.68,2.7,2.68h0s3.82,3.83,3.82,3.83h0s3.98,3.98,3.98,3.98h0s.25.25.25.25c7.76,7.8,18.08,12.1,29.06,12.1h174.56c22.62,0,41.02-18.4,41.02-41.02v-176.92c0-10.94-4.27-21.24-12.02-28.99l-2.89-2.9Z"></path>
  <path d="M488.01,275.2s-.06-.06-.09-.09c-.03-.03-.06-.06-.09-.09s-.06-.06-.09-.09c-.03-.03-.06-.06-.09-.09-.03-.03-.06-.06-.09-.09l-.09-.09s-.06-.06-.09-.09l-.09-.09-.09-.09-.09-.09-.09-.09s-.06-.06-.09-.09c-.03-.03-.06-.06-.09-.09l-.09-.09s-.06-.06-.09-.09c-.03-.03-.06-.06-.09-.09-.03-.03-.06-.06-.09-.09s-.06-.06-.09-.09c-.03-.03-.06-.06-.09-.09-.03-.03-.06-.06-.09-.09-.03-.03-.06-.06-.09-.09-.03-.03-.06-.06-.09-.09-.03-.03-.06-.06-.09-.09-.03-.03-.06-.06-.09-.09s-.06-.06-.09-.09l-.09-.09s-.06-.06-.09-.09c-.03-.03-.06-.06-.09-.09-.03-.03-.06-.06-.09-.09-.03-.03-.06-.06-.09-.09s-.06-.06-.09-.09c-.03-.03-.06-.06-.09-.09l-.09-.09-.09-.09-.09-.09-.09-.09s-.06-.06-.09-.09c-.03-.03-.06-.06-.09-.09l-.09-.09s-.06-.06-.09-.09l-.09-.09-.09-.09s-.06-.06-.09-.09l-.09-.09-.09-.09s-.06-.06-.09-.09c-.03-.03-.06-.06-.09-.09-.03-.03-.06-.06-.09-.09l-.09-.09-.09-.09s-.06-.06-.09-.09l-.09-.09s-.06-.06-.09-.09-.06-.06-.09-.09l-.09-.09s-.06-.06-.09-.09c-.03-.03-.06-.06-.09-.09-.03-.03-.06-.06-.09-.09l-.09-.09-.09-.09s-.06-.06-.09-.09c-.03-.03-.06-.06-.09-.09-.03-.03-.06-.06-.09-.09-.03-.03-.06-.06-.09-.09l-.09-.09s-.06-.06-.09-.09l-.09-.09s-.06-.06-.09-.09c-.03-.03-.06-.06-.09-.09-.03-.03-.06-.06-.09-.09l-.09-.09s-.06-.06-.09-.09-.06-.06-.09-.09c-.03-.03-.06-.06-.09-.09l-.09-.09-.09-.09s-.06-.06-.09-.09c-.03-.03-.06-.06-.09-.09-.03-.03-.06-.06-.09-.09s-.06-.06-.09-.09l-.09-.09s-.06-.06-.09-.09c-.03-.03-.06-.06-.09-.09l-.09-.09s-.06-.06-.09-.09c-.03-.03-.06-.06-.09-.09-.03-.03-.06-.06-.09-.09-.03-.03-.06-.06-.09-.09-.03-.03-.06-.06-.09-.09-.03-.03-.06-.06-.09-.09l-.09-.09s-.06-.06-.09-.09c-.03-.03-.06-.06-.09-.09l-.09-.09-.09-.09s-.06-.06-.09-.09l-.09-.09s-.06-.06-.09-.09c-.03-.03-.06-.06-.09-.09l-.09-.09-.09-.09s-.06-.06-.09-.09c-.03-.03-.06-.06-.09-.09-.03-.03-.06-.06-.09-.09-.03-.03-.06-.06-.09-.09-.03-.03-.06-.06-.09-.09-.03-.03-.06-.06-.09-.09s-.06-.06-.09-.09c-.03-.03-.06-.06-.09-.09s-.06-.06-.09-.09l-.09-.09s-.06-.06-.09-.09-.06-.06-.09-.09l-.09-.09s-.06-.06-.09-.09c-.03-.03-.06-.06-.09-.09-.03-.03-.06-.06-.09-.09l-.09-.09-.09-.09s-.06-.06-.09-.09c-.03-.03-.06-.06-.09-.09-.03-.03-.06-.06-.09-.09-.03-.03-.06-.06-.09-.09-.03-.03-.06-.06-.09-.09l-.09-.09-.09-.09s-.06-.06-.09-.09l-.09-.09s-.06-.06-.09-.09-.06-.06-.09-.09c-.03-.03-.06-.06-.09-.09-.03-.03-.06-.06-.09-.09l-.09-.09-.09-.09-.09-.09s-.06-.06-.09-.09c-.03-.03-.06-.06-.09-.09l-.09-.09s-.06-.06-.09-.09c-.03-.03-.06-.06-.09-.09-.03-.03-.06-.06-.09-.09-.03-.03-.06-.06-.09-.09-.03-.03-.06-.06-.09-.09s-.06-.06-.09-.09c-.03-.03-.06-.06-.09-.09-.03-.03-.06-.06-.09-.09-.03-.03-.06-.06-.09-.09-.03-.03-.06-.06-.09-.09s-.06-.06-.09-.09c-.03-.03-.06-.06-.09-.09l-.09-.09-.09-.09s-.06-.06-.09-.09c-.03-.03-.06-.06-.09-.09-.03-.03-.06-.06-.09-.09s-.06-.06-.09-.09l-.09-.09s-.06-.06-.09-.09l-.09-.09-.09-.09-.09-.09s-.06-.06-.09-.09c-.03-.03-.06-.06-.09-.09-.03-.03-.06-.06-.09-.09-.03-.03-.06-.06-.09-.09-.03-.03-.06-.06-.09-.09s-.06-.06-.09-.09l-.09-.09s-.06-.06-.09-.09l-.09-.09s-.06-.06-.09-.09-.06-.06-.09-.09l-.09-.09-.09-.09s-.06-.06-.09-.09c-.03-.03-.06-.06-.09-.09-.03-.03-.06-.06-.09-.09-.03-.03-.06-.06-.09-.09l-.09-.09s-.06-.06-.09-.09c-.03-.03-.06-.06-.09-.09-.03-.03-.06-.06-.09-.09l-.09-.09s-.06-.06-.09-.09c-.03-.03-.06-.06-.09-.09-.03-.03-.06-.06-.09-.09-.03-.03-.06-.06-.09-.09-.03-.03-.06-.06-.09-.09l-.09-.09s-.06-.06-.09-.09l-.09-.09-.09-.09s-.06-.06-.09-.09c-.03-.03-.06-.06-.09-.09s-.06-.06-.09-.09c-.03-.03-.06-.06-.09-.09-.03-.03-.06-.06-.09-.09l-.09-.09-.09-.09s-.06-.06-.09-.09c-.03-.03-.06-.06-.09-.09l-.09-.09s-.06-.06-.09-.09c-.03-.03-.06-.06-.09-.09-.03-.03-.06-.06-.09-.09-.03-.03-.06-.06-.09-.09-.03-.03-.06-.06-.09-.09l-.09-.09-.09-.09s-.06-.06-.09-.09c-.03-.03-.06-.06-.09-.09-.03-.03-.06-.06-.09-.09-.03-.03-.06-.06-.09-.09-.03-.03-.06-.06-.09-.09l-.09-.09-.09-.09s-.06-.06-.09-.09c-.03-.03-.06-.06-.09-.09l-.09-.09s-.06-.06-.09-.09c-.03-.03-.06-.06-.09-.09-.03-.03-.06-.06-.09-.09-.03-.03-.06-.06-.09-.09-.03-.03-.06-.06-.09-.09-.03-.03-.06-.06-.09-.09s-.06-.06-.09-.09l-.09-.09-.09-.09s-.06-.06-.09-.09c-.03-.03-.06-.06-.09-.09s-.06-.06-.09-.09-.06-.06-.09-.09c-.03-.03-.06-.06-.09-.09-.03-.03-.06-.06-.09-.09s-.06-.06-.09-.09c-.03-.03-.06-.06-.09-.09l-.09-.09s-.06-.06-.09-.09c-.03-.03-.06-.06-.09-.09-.03-.03-.06-.06-.09-.09-.03-.03-.06-.06-.09-.09-.03-.03-.06-.06-.09-.09l-.09-.09s-.06-.06-.09-.09c-.03-.03-.06-.06-.09-.09l-.09-.09s-.06-.06-.09-.09-.06-.06-.09-.09c-.03-.03-.06-.06-.09-.09s-.06-.06-.09-.09c-.03-.03-.06-.06-.09-.09l-.09-.09-.09-.09s-.06-.06-.09-.09c-.03-.03-.06-.06-.09-.09l-.09-.09s-.06-.06-.09-.09c-.03-.03-.06-.06-.09-.09l-.09-.09s-.06-.06-.09-.09c-.03-.03-.06-.06-.09-.09l-.09-.09s-.06-.06-.09-.09c-.01-.02-.03-.03-.04-.04,1.28-1.29,2.55-2.6,3.77-3.95,10.64-11.75,18.6-25.28,23.66-40.22,5.28-15.59,7.12-31.92,5.48-48.55-2.58-26.06-14.34-50.75-33.12-69.52-.02-.02-.03-.03-.05-.04s-.03-.03-.05-.05-.03-.03-.05-.05c-.02-.01-.03-.03-.04-.05-.02-.02-.03-.03-.05-.05s-.03-.03-.05-.05-.03-.03-.05-.05-.03-.03-.05-.05c-.02-.01-.03-.03-.05-.04-.01-.02-.03-.03-.05-.05s-.03-.03-.05-.05c-.01-.02-.03-.03-.04-.05-.02-.01-.03-.03-.05-.05-.02-.01-.03-.03-.05-.05-.01-.01-.03-.03-.05-.04-.02-.02-.03-.03-.05-.05-.01-.01-.03-.03-.05-.04-.02-.02-.03-.03-.05-.05-.01-.02-.03-.03-.05-.05s-.03-.03-.04-.05c-.02-.01-.03-.03-.05-.04-.02-.02-.03-.03-.05-.05-.02-.02-.03-.03-.05-.05-.02-.02-.03-.03-.05-.05-.02-.02-.03-.03-.05-.04-.02-.02-.03-.03-.05-.05s-.03-.03-.05-.05-.03-.03-.04-.05c-.02-.02-.03-.03-.05-.05s-.03-.03-.05-.05-.03-.03-.05-.05c-.02-.01-.03-.03-.05-.05s-.03-.03-.05-.04c-.02-.02-.03-.03-.05-.05s-.03-.03-.05-.05c-.02-.01-.03-.03-.04-.05s-.03-.03-.05-.05-.03-.03-.05-.05-.03-.03-.05-.05c-.02-.01-.03-.03-.05-.05-.01-.02-.03-.03-.05-.04-.02-.02-.03-.03-.05-.05-.02-.02-.03-.03-.05-.05-.01-.02-.03-.03-.04-.05s-.03-.03-.05-.05c-.02-.01-.03-.03-.04-.05-.02-.02-.03-.03-.05-.05-.01-.01-.03-.03-.05-.05-.01-.02-.03-.03-.05-.05s-.03-.03-.05-.05c-.02-.02-.03-.03-.05-.05-.02-.01-.03-.03-.04-.05-.02-.02-.03-.03-.05-.05-.02-.02-.03-.03-.05-.05-.02-.02-.03-.03-.05-.05-.01-.02-.03-.03-.04-.05-.02-.02-.03-.03-.05-.04-.02-.02-.03-.03-.05-.05s-.03-.03-.05-.05c-.02-.01-.03-.03-.04-.05s-.03-.03-.05-.05-.03-.03-.05-.05-.03-.03-.05-.05-.03-.03-.05-.05c-.02-.01-.03-.03-.05-.04s-.03-.03-.05-.05-.03-.03-.05-.05c-.01-.02-.03-.03-.04-.05s-.03-.03-.05-.05-.03-.03-.05-.05c-.01-.02-.03-.03-.05-.04-.02-.02-.03-.03-.05-.05-.02-.01-.03-.03-.05-.04-.02-.02-.03-.03-.05-.05-.02-.02-.03-.03-.05-.05s-.03-.03-.05-.05c-.01-.01-.03-.03-.05-.04-.01-.02-.03-.03-.05-.05-.01-.02-.03-.03-.05-.05-.02-.02-.03-.03-.05-.05-.01-.01-.03-.03-.05-.04-.02-.02-.03-.03-.05-.05s-.03-.03-.05-.05c-.02-.02-.03-.03-.05-.05-.02-.02-.03-.03-.05-.05-.02-.01-.03-.03-.04-.05-.02-.02-.03-.03-.05-.05-.02-.02-.03-.03-.05-.05s-.03-.03-.05-.04c-.02-.02-.03-.03-.05-.05s-.03-.03-.05-.05-.03-.03-.05-.05-.03-.03-.05-.05c-.01-.01-.03-.03-.04-.05s-.03-.03-.05-.05-.03-.03-.05-.05-.03-.03-.05-.05c-.02-.01-.03-.03-.05-.05-.02-.01-.03-.03-.05-.04-.02-.02-.03-.03-.05-.05s-.03-.03-.05-.05c-.01-.02-.03-.03-.04-.05-.02-.01-.03-.03-.05-.05-.02-.01-.03-.03-.04-.05-.02-.02-.03-.03-.05-.04-.02-.02-.03-.03-.05-.05-.02-.01-.03-.03-.05-.04s-.03-.03-.05-.05c-.02-.01-.03-.03-.05-.05s-.03-.03-.04-.05c-.02-.01-.03-.03-.05-.04-.01-.02-.03-.03-.04-.05s-.03-.03-.05-.05c-.02-.02-.03-.03-.05-.05-.02-.02-.03-.03-.05-.04-.02-.02-.03-.03-.05-.05s-.03-.03-.05-.05c-.02-.01-.03-.03-.04-.05-.02-.02-.03-.03-.05-.05-.02-.02-.03-.03-.05-.05s-.03-.03-.05-.05c-.02-.02-.03-.03-.05-.05-.01-.02-.03-.03-.05-.04-.02-.02-.03-.03-.05-.05s-.03-.03-.05-.05c-.02-.02-.03-.03-.04-.05s-.03-.03-.05-.05-.03-.03-.05-.05-.03-.03-.05-.05c-.02-.01-.03-.03-.05-.05-.01-.02-.03-.03-.05-.05-.02-.02-.03-.03-.05-.05-.02-.02-.03-.03-.05-.05-.01-.02-.03-.03-.04-.05-.01-.02-.03-.03-.05-.05-.02-.02-.03-.03-.04-.05-.02-.02-.03-.03-.05-.05-.01-.02-.03-.03-.05-.05-.01-.02-.03-.03-.05-.05-.02-.01-.03-.03-.05-.05-.02-.02-.03-.03-.05-.05-.02-.01-.03-.03-.04-.05-.02-.02-.03-.03-.05-.05-.01-.02-.03-.03-.04-.05s-.03-.03-.05-.05c-.01-.02-.03-.03-.04-.05-.02-.02-.03-.03-.05-.04-.02-.02-.03-.03-.05-.05s-.03-.03-.05-.05c-.02-.01-.03-.03-.04-.05-.02-.02-.03-.03-.05-.05s-.03-.03-.05-.05-.03-.03-.05-.05-.03-.03-.05-.05c-.02-.01-.03-.03-.05-.04-.01-.02-.03-.03-.05-.05s-.03-.03-.05-.05c-.01-.02-.03-.03-.04-.05s-.03-.03-.05-.05c-.02-.01-.03-.03-.05-.05-.01-.01-.03-.03-.05-.04-.02-.02-.03-.03-.05-.05-.01-.01-.03-.03-.05-.04-.02-.02-.03-.03-.05-.05-.01-.02-.03-.03-.05-.05s-.03-.03-.05-.05c-.01-.01-.03-.03-.05-.04-.02-.02-.03-.03-.05-.05-.01-.02-.03-.03-.05-.05s-.03-.03-.04-.05l-.05-.04s-.03-.03-.05-.05-.03-.03-.05-.05-.03-.03-.04-.05c-.02-.02-.03-.03-.05-.05s-.03-.03-.05-.05-.03-.03-.05-.05c-.02-.02-.03-.03-.05-.05s-.03-.03-.05-.04c-.02-.02-.03-.03-.05-.05s-.03-.03-.05-.05c-.01-.01-.03-.03-.04-.05s-.03-.03-.05-.05-.03-.03-.05-.05-.03-.03-.05-.05c-.02-.01-.03-.03-.05-.05-.01-.02-.03-.03-.05-.04-.02-.02-.03-.03-.05-.05-.02-.01-.03-.03-.05-.05-.02-.01-.03-.03-.05-.05s-.03-.03-.05-.05l-.04-.05s-.03-.03-.05-.05c-.01-.01-.03-.03-.04-.05-.02-.01-.03-.03-.05-.04s-.03-.03-.05-.05c-.02-.02-.03-.03-.05-.05-.01-.01-.03-.03-.04-.05-.02-.02-.03-.03-.05-.05s-.03-.03-.04-.05c-.02-.02-.03-.03-.05-.05-.01-.02-.03-.03-.04-.05s-.03-.03-.05-.05c-.02-.02-.03-.03-.05-.05-.02-.02-.03-.03-.05-.04-.02-.02-.03-.03-.05-.05s-.03-.03-.05-.05c-.02-.02-.03-.03-.04-.05-.02-.02-.03-.03-.05-.05s-.03-.03-.05-.05-.03-.03-.05-.05-.03-.03-.05-.05c-.01-.01-.03-.03-.05-.04-.02-.02-.03-.03-.05-.05s-.03-.03-.05-.05-.03-.03-.04-.05-.03-.03-.05-.04c-.02-.02-.03-.03-.05-.05-.01-.02-.03-.03-.05-.04-.02-.02-.03-.03-.05-.05-.01-.02-.03-.03-.05-.05-.02-.02-.03-.03-.05-.05-.02-.02-.03-.03-.05-.05-.01-.01-.03-.03-.04-.05-.01-.02-.03-.03-.05-.05-.02-.02-.03-.03-.04-.05-.02-.02-.03-.03-.05-.05-.01-.02-.03-.03-.05-.05-.01-.02-.03-.03-.05-.04-.02-.02-.03-.03-.05-.05s-.03-.03-.05-.05c-.02-.01-.03-.03-.04-.05-.02-.02-.03-.03-.05-.05s-.03-.03-.05-.05-.03-.03-.05-.05-.03-.03-.05-.05-.03-.03-.05-.04-.03-.03-.05-.05-.03-.03-.05-.05c-.01-.01-.03-.03-.04-.05-.02-.02-.03-.03-.05-.05s-.03-.03-.05-.05-.03-.03-.05-.05c-.02-.01-.03-.03-.05-.05-.02-.01-.03-.03-.05-.04-.02-.02-.03-.03-.05-.05s-.03-.03-.05-.05c-.01-.02-.03-.03-.04-.05-.02-.01-.03-.03-.05-.05-.02-.01-.03-.03-.05-.05-.01-.01-.03-.03-.05-.04-.02-.02-.03-.03-.05-.05-.01-.01-.03-.03-.05-.04-.02-.02-.03-.03-.05-.05-.02-.02-.03-.03-.05-.05s-.03-.03-.04-.05c-.02-.01-.03-.03-.05-.04-.02-.02-.03-.03-.05-.05s-.03-.03-.05-.05c-.02-.02-.03-.03-.05-.05-.02-.02-.03-.03-.05-.04-.02-.02-.03-.03-.05-.05s-.03-.03-.05-.05c-.02-.01-.03-.03-.04-.05-.02-.02-.03-.03-.05-.05-.02-.02-.03-.03-.05-.05s-.03-.03-.05-.05c-.02-.02-.03-.03-.05-.05-.01-.02-.03-.03-.05-.04-.02-.02-.03-.03-.05-.05s-.03-.03-.05-.05c-.02-.02-.03-.03-.04-.05s-.03-.03-.05-.05-.03-.03-.05-.05-.03-.03-.05-.05c-.02-.01-.03-.03-.05-.05-.01-.01-.03-.03-.05-.04-.02-.02-.03-.03-.05-.05-.02-.02-.03-.03-.05-.05-.01-.02-.03-.03-.04-.05-.01-.02-.03-.03-.05-.05-.01-.01-.03-.03-.04-.05-.02-.02-.03-.03-.05-.05-.01-.02-.03-.03-.05-.05-.01-.02-.03-.03-.05-.05-.02-.01-.03-.03-.05-.05-.02-.02-.03-.03-.05-.05-.02-.01-.03-.03-.04-.05-.02-.02-.03-.03-.05-.05-.02-.02-.03-.03-.05-.05-.02-.02-.03-.03-.05-.05-.01-.02-.03-.03-.04-.05-.02-.02-.03-.03-.05-.04-.02-.02-.03-.03-.05-.05s-.03-.03-.05-.05-.03-.03-.05-.05-.03-.03-.05-.05-.03-.03-.04-.05c-.02-.02-.03-.03-.05-.05s-.03-.03-.05-.05c-.02-.01-.03-.03-.05-.04-.01-.02-.03-.03-.05-.05-.01-.02-.03-.03-.05-.05s-.03-.03-.05-.05-.03-.03-.05-.05c-.01-.02-.03-.03-.04-.05-.01-.01-.03-.03-.05-.04-.02-.02-.03-.03-.05-.05-.02-.01-.03-.03-.05-.04-.02-.02-.03-.03-.05-.05-.01-.02-.03-.03-.05-.05-.02-.02-.03-.03-.05-.05-.01-.02-.03-.03-.05-.05-.02-.01-.03-.03-.05-.05-.01-.02-.03-.03-.05-.05-.02-.02-.03-.03-.04-.05-.02-.01-.03-.03-.05-.04s-.03-.03-.05-.05c-.02-.02-.03-.03-.05-.04-.02-.02-.03-.03-.05-.05s-.03-.03-.05-.05c-.02-.01-.03-.03-.04-.05-.02-.02-.03-.03-.05-.05-.02-.02-.03-.03-.05-.05s-.03-.03-.05-.05-.03-.03-.05-.05-.03-.03-.05-.04c-.01-.02-.03-.03-.05-.05s-.03-.03-.05-.05c-.01-.01-.03-.03-.04-.05s-.03-.03-.05-.05c-.02-.01-.03-.03-.05-.05s-.03-.03-.05-.05c-.02-.01-.03-.03-.05-.05-.01-.01-.03-.03-.05-.04-.02-.02-.03-.03-.05-.05s-.03-.03-.05-.05l-.04-.05s-.03-.03-.05-.05c-.02-.01-.03-.03-.04-.05-.02-.02-.03-.03-.05-.04-.02-.02-.03-.03-.05-.05-.02-.02-.03-.03-.05-.05s-.03-.03-.05-.05c-.02-.01-.03-.03-.05-.05s-.03-.03-.04-.05c-.02-.02-.03-.03-.05-.05-.01-.02-.03-.03-.04-.05s-.03-.03-.05-.05c-.02-.02-.03-.03-.05-.05-.02-.02-.03-.03-.05-.04-.02-.02-.03-.03-.05-.05s-.03-.03-.05-.05c-.02-.01-.03-.03-.04-.05-.02-.02-.03-.03-.05-.05-.02-.02-.03-.03-.05-.05s-.03-.03-.05-.05-.03-.03-.05-.05c-.01-.02-.03-.03-.05-.04-.02-.02-.03-.03-.05-.05s-.03-.03-.05-.05-.03-.03-.04-.05-.03-.03-.05-.05-.03-.03-.05-.05c-.01-.02-.03-.03-.05-.05-.01-.01-.03-.03-.05-.05-.01-.02-.03-.03-.05-.05-.02-.02-.03-.03-.05-.05-.02-.02-.03-.03-.05-.05-.01-.01-.03-.03-.04-.05-.01-.02-.03-.03-.05-.05-.02-.02-.03-.03-.04-.05-.02-.02-.03-.03-.05-.05-.01-.02-.03-.03-.05-.05-.01-.02-.03-.03-.05-.04-.02-.02-.03-.03-.05-.05s-.03-.03-.05-.05c-.02-.01-.03-.03-.05-.05-.01-.02-.03-.03-.05-.05-.01-.02-.03-.03-.04-.05s-.03-.03-.05-.05c-.01-.02-.03-.03-.04-.05-.02-.01-.03-.03-.05-.04s-.03-.03-.05-.05-.03-.03-.05-.05c-.01-.01-.03-.03-.04-.05-.02-.02-.03-.03-.05-.05s-.03-.03-.05-.05-.03-.03-.05-.04c-.02-.02-.03-.03-.05-.05-.02-.01-.03-.03-.05-.04-.01-.02-.03-.03-.05-.05s-.03-.03-.05-.05c-.02-.02-.03-.03-.05-.05-.02-.01-.03-.03-.05-.05-.02-.01-.03-.03-.05-.05-.01-.01-.03-.03-.05-.04-.02-.02-.03-.03-.05-.05-.01-.01-.03-.03-.05-.04-.02-.02-.03-.03-.05-.05-.02-.01-.03-.03-.05-.04-.02-.02-.03-.03-.05-.05-.02-.01-.03-.03-.05-.05-.02-.01-.03-.03-.04-.05-.02-.02-.03-.03-.05-.05-.02-.02-.03-.03-.05-.05l-.05-.04s-.03-.03-.05-.05-.03-.03-.05-.05c-.02-.02-.03-.03-.05-.05s-.03-.03-.05-.05c-.01-.01-.03-.03-.04-.05s-.03-.03-.05-.05c-.02-.02-.03-.03-.05-.05s-.03-.03-.05-.05-.03-.03-.05-.05-.03-.03-.05-.04c-.02-.02-.03-.03-.05-.05s-.03-.03-.05-.05c-.01-.02-.03-.03-.04-.05s-.03-.03-.05-.05c-.02-.01-.03-.03-.05-.05s-.03-.03-.05-.05c-.02-.01-.03-.03-.04-.05-.02-.01-.03-.03-.05-.04s-.03-.03-.05-.05-.03-.03-.05-.05l-.04-.05s-.03-.03-.05-.04c-.01-.02-.03-.03-.04-.05-.02-.02-.03-.03-.05-.05-.01-.02-.03-.03-.04-.05-.02-.02-.03-.03-.05-.05-.02-.01-.03-.03-.05-.05-.02-.02-.03-.03-.05-.05-.02-.01-.03-.03-.04-.05-.02-.02-.03-.03-.05-.05-.01-.02-.03-.03-.04-.05s-.03-.03-.05-.05c-.02-.02-.03-.03-.05-.05s-.03-.03-.05-.04c-.02-.02-.03-.03-.05-.05s-.03-.03-.05-.05c-.02-.02-.03-.03-.04-.05-.02-.02-.03-.03-.05-.05s-.03-.03-.05-.05-.03-.03-.05-.05-.03-.03-.05-.05c-.01-.01-.03-.03-.05-.04-.02-.02-.03-.03-.05-.05s-.03-.03-.05-.05c-.01-.02-.03-.03-.04-.05-.01-.02-.03-.03-.05-.05-.02-.02-.03-.03-.05-.05-.01-.02-.03-.03-.05-.04-.02-.02-.03-.03-.05-.05-.01-.02-.03-.03-.05-.05-.02-.02-.03-.03-.05-.05-.02-.02-.03-.03-.05-.05-.02-.01-.03-.03-.05-.05-.01-.02-.03-.03-.05-.05-.02-.02-.03-.03-.04-.05-.02-.02-.03-.03-.05-.05-.01-.02-.03-.03-.05-.05-.01-.02-.03-.03-.05-.04-.02-.02-.03-.03-.05-.05-.02-.02-.03-.03-.05-.05-.02-.01-.03-.03-.04-.05-.02-.02-.03-.03-.05-.05s-.03-.03-.05-.05-.03-.03-.05-.05-.03-.03-.05-.05-.03-.03-.05-.04c-.01-.02-.03-.03-.05-.05s-.03-.03-.05-.05c-.01-.01-.03-.03-.04-.05-.02-.02-.03-.03-.05-.05-.02-.01-.03-.03-.05-.05s-.03-.03-.05-.05c-.02-.01-.03-.03-.05-.05-.01-.01-.03-.03-.05-.04-.02-.02-.03-.03-.05-.05s-.03-.03-.05-.05c-.01-.02-.03-.03-.04-.05-.02-.01-.03-.03-.05-.05-.02-.01-.03-.03-.05-.05-.01-.01-.03-.03-.05-.04s-.03-.03-.04-.05l-.05-.04s-.03-.03-.05-.05c-.02-.01-.03-.03-.05-.05s-.03-.03-.04-.05c-.02-.02-.03-.03-.05-.05-.02-.02-.03-.03-.05-.05s-.03-.03-.05-.05c-.02-.02-.03-.03-.05-.05-.02-.02-.03-.03-.05-.04-.02-.02-.03-.03-.05-.05s-.03-.03-.05-.05c-.02-.01-.03-.03-.04-.05s-.03-.03-.05-.05c-.02-.02-.03-.03-.05-.05s-.03-.03-.05-.05-.03-.03-.05-.05c-.01-.02-.03-.03-.05-.04-.02-.02-.03-.03-.05-.05s-.03-.03-.05-.05c-.02-.01-.03-.03-.05-.05s-.03-.03-.05-.05c-.01-.02-.03-.03-.04-.05s-.03-.03-.05-.05c-.01-.01-.03-.03-.05-.05-.01-.01-.03-.03-.05-.04-.02-.02-.03-.03-.05-.05-.02-.02-.03-.03-.05-.05-.01-.01-.03-.03-.05-.05-.02-.02-.03-.03-.05-.05-.01-.02-.03-.03-.04-.05-.02-.02-.03-.03-.05-.05-.01-.02-.03-.03-.05-.05-.01-.02-.03-.03-.05-.05-.01-.02-.03-.03-.04-.05-.02-.02-.03-.03-.05-.05-.02-.01-.03-.03-.05-.05-.02-.02-.03-.03-.05-.05-.02-.02-.03-.03-.04-.05-.02-.02-.03-.03-.05-.05-.01-.02-.03-.03-.04-.05-.02-.02-.03-.03-.05-.05s-.03-.03-.05-.05-.03-.03-.05-.04-.03-.03-.05-.05-.03-.03-.05-.05-.03-.03-.04-.05c-.02-.02-.03-.03-.05-.04-.02-.02-.03-.03-.05-.05s-.03-.03-.05-.05-.03-.03-.05-.05c-.01-.01-.03-.03-.05-.04-.02-.02-.03-.03-.05-.05s-.03-.03-.05-.05c-.01-.02-.03-.03-.04-.05-.01-.01-.03-.03-.05-.04-.02-.02-.03-.03-.05-.05-.02-.01-.03-.03-.05-.04-.02-.02-.03-.03-.05-.05-.01-.02-.03-.03-.05-.05-.02-.02-.03-.03-.05-.05-.01-.02-.03-.03-.05-.05-.02-.01-.03-.03-.04-.05-.02-.02-.03-.03-.05-.05-.02-.02-.03-.03-.05-.05-.02-.01-.03-.03-.05-.04s-.03-.03-.05-.05-.03-.03-.05-.04c-.02-.02-.03-.03-.05-.05s-.03-.03-.05-.05c-.01-.01-.03-.03-.04-.05-.02-.02-.03-.03-.05-.05-.02-.02-.03-.03-.05-.05s-.03-.03-.05-.05-.03-.03-.05-.05-.03-.03-.05-.04c-.02-.02-.03-.03-.05-.05s-.03-.03-.05-.05c-.01-.01-.03-.03-.04-.05s-.03-.03-.05-.05c-.02-.01-.03-.03-.05-.05s-.03-.03-.05-.05c-.02-.01-.03-.03-.05-.05-.01-.01-.03-.03-.05-.04s-.03-.03-.05-.05c-.02-.02-.03-.03-.05-.05l-.04-.05s-.03-.03-.05-.05c-.02-.01-.03-.03-.04-.05-.02-.02-.03-.03-.05-.05-.02-.02-.03-.03-.05-.05-.02-.02-.03-.03-.05-.05s-.03-.03-.05-.05-.03-.03-.05-.05c-.02-.01-.03-.03-.04-.05-.02-.02-.03-.03-.05-.05-.01-.02-.03-.03-.04-.05s-.03-.03-.05-.05c-.02-.02-.03-.03-.05-.05s-.03-.03-.05-.04c-.02-.02-.03-.03-.05-.05s-.03-.03-.05-.05c-.02-.02-.03-.03-.04-.05-.02-.02-.03-.03-.05-.05s-.03-.03-.05-.05-.03-.03-.05-.05-.03-.03-.05-.05c-.01-.01-.03-.03-.05-.04-.02-.02-.03-.03-.05-.05s-.03-.03-.05-.05c-.01-.02-.03-.03-.04-.05-.01-.02-.03-.03-.05-.05s-.03-.03-.05-.05c-.01-.02-.03-.03-.05-.04-.01-.02-.03-.03-.05-.05-.01-.02-.03-.03-.05-.05-.02-.02-.03-.03-.05-.05-.02-.02-.03-.03-.05-.05-.02-.01-.03-.03-.05-.05-.01-.02-.03-.03-.05-.05-.02-.02-.03-.03-.04-.05-.02-.02-.03-.03-.05-.05-.01-.02-.03-.03-.05-.05-.01-.02-.03-.03-.05-.04-.02-.02-.03-.03-.05-.05s-.03-.03-.05-.05-.03-.03-.05-.05c-.02-.02-.03-.03-.05-.05-.02-.01-.03-.03-.04-.05-.02-.02-.03-.03-.05-.05s-.03-.03-.05-.05c-.02-.01-.03-.03-.05-.04-.01-.02-.03-.03-.05-.05s-.03-.03-.05-.05-.03-.03-.05-.05-.03-.03-.05-.05c-.01-.02-.03-.03-.04-.05s-.03-.03-.05-.04c-.02-.02-.03-.03-.05-.05-.02-.01-.03-.03-.05-.05-.02-.01-.03-.03-.05-.05-.02-.01-.03-.03-.05-.04-.02-.02-.03-.03-.05-.05-.02-.02-.03-.03-.05-.05-.02-.02-.03-.03-.05-.05-.01-.01-.03-.03-.05-.04-.02-.02-.03-.03-.04-.05-.02-.01-.03-.03-.05-.04-.02-.02-.03-.03-.04-.05-.02-.01-.03-.03-.05-.04s-.03-.03-.05-.05c-.02-.01-.03-.03-.05-.05-.02-.01-.03-.03-.04-.05-.02-.02-.03-.03-.05-.05-.02-.02-.03-.03-.05-.05s-.03-.03-.05-.05c-.02-.02-.03-.03-.05-.05s-.03-.03-.05-.04c-.02-.02-.03-.03-.05-.05s-.03-.03-.05-.05c-.01-.01-.03-.03-.04-.05s-.03-.03-.05-.05c-.02-.01-.03-.03-.05-.05s-.03-.03-.05-.05-.03-.03-.05-.05c-.01-.02-.03-.03-.05-.04-.02-.02-.03-.03-.05-.05s-.03-.03-.05-.05l-.04-.05s-.03-.03-.05-.05c-.02-.01-.03-.03-.05-.05s-.03-.03-.05-.05c-.02-.01-.03-.03-.04-.05-.02-.02-.03-.03-.05-.05s-.03-.03-.05-.05c-.02-.02-.03-.03-.05-.05-.01-.02-.03-.03-.04-.05-.02-.02-.03-.03-.05-.05-.01-.02-.03-.03-.04-.05-.02-.02-.03-.03-.05-.05-.01-.02-.03-.03-.04-.05-.02-.02-.03-.03-.05-.05-.02-.01-.03-.03-.05-.05-.02-.02-.03-.03-.05-.05-.02-.01-.03-.03-.04-.05-.02-.02-.03-.03-.05-.05-.01-.02-.03-.03-.04-.05s-.03-.03-.05-.05-.03-.03-.05-.05-.03-.03-.05-.04c-.02-.02-.03-.03-.05-.05s-.03-.03-.05-.05-.03-.03-.04-.05c-.02-.02-.03-.03-.05-.05s-.03-.03-.05-.05-.03-.03-.05-.05-.03-.03-.05-.05c-.01-.01-.03-.03-.05-.04-.02-.02-.03-.03-.05-.05s-.03-.03-.05-.05c-.01-.02-.03-.03-.04-.05-.01-.02-.03-.03-.05-.05-.02-.02-.03-.03-.05-.05-.01-.01-.03-.03-.05-.04-.02-.02-.03-.03-.05-.05-.01-.02-.03-.03-.05-.04-.02-.02-.03-.03-.05-.05-.01-.02-.03-.03-.05-.05-.02-.01-.03-.03-.05-.05-.01-.02-.03-.03-.05-.05-.02-.02-.03-.03-.04-.05-.02-.02-.03-.03-.05-.05-.01-.02-.03-.03-.04-.05s-.03-.03-.05-.04-.03-.03-.05-.05-.03-.03-.05-.05c-.01-.01-.03-.03-.04-.05-.02-.02-.03-.03-.05-.05s-.03-.03-.05-.05-.03-.03-.05-.05-.03-.03-.05-.05-.03-.03-.05-.04c-.01-.02-.03-.03-.05-.05s-.03-.03-.05-.05c-.01-.01-.03-.03-.04-.05-.02-.01-.03-.03-.05-.05-.02-.01-.03-.03-.05-.05s-.03-.03-.05-.05c-.02-.01-.03-.03-.05-.05-.01-.01-.03-.03-.05-.04s-.03-.03-.05-.05c-.02-.02-.03-.03-.05-.04-.02-.02-.03-.03-.05-.05-.02-.01-.03-.03-.05-.05s-.03-.03-.04-.05c-.02-.01-.03-.03-.05-.04-.02-.02-.03-.03-.05-.05l-.05-.04s-.03-.03-.05-.05-.03-.03-.05-.05c-.02-.02-.03-.03-.05-.05-.02-.02-.03-.03-.05-.05s-.03-.03-.04-.05-.03-.03-.05-.05c-.02-.02-.03-.03-.05-.05-.02-.02-.03-.03-.05-.05-.02-.02-.03-.03-.05-.05s-.03-.03-.05-.04c-.02-.02-.03-.03-.05-.05s-.03-.03-.05-.05c-.01-.02-.03-.03-.04-.05s-.03-.03-.05-.05-.03-.03-.05-.05-.03-.03-.05-.05-.03-.03-.05-.05c-.01-.01-.03-.03-.05-.04-.02-.02-.03-.03-.05-.05s-.03-.03-.05-.05c-.01-.02-.03-.03-.04-.05s-.03-.03-.05-.04c-.01-.02-.03-.03-.05-.05-.01-.02-.03-.03-.05-.05-.02-.02-.03-.03-.04-.05-.02-.02-.03-.03-.05-.05s-.03-.03-.05-.05c-.02-.02-.03-.03-.05-.05-.01-.01-.03-.03-.04-.05-.02-.02-.03-.03-.05-.05-.01-.02-.03-.03-.05-.05-.01-.02-.03-.03-.05-.05-.01-.02-.03-.03-.04-.05s-.03-.03-.05-.04c-.02-.02-.03-.03-.05-.05-.02-.02-.03-.03-.05-.05-.02-.02-.03-.03-.04-.05-.02-.02-.03-.03-.05-.05s-.03-.03-.05-.05c-.02-.02-.03-.03-.05-.05s-.03-.03-.05-.05-.03-.03-.05-.04-.03-.03-.05-.05-.03-.03-.05-.05c-.01-.02-.03-.03-.04-.05s-.03-.03-.05-.04c-.02-.02-.03-.03-.05-.05s-.03-.03-.05-.05c-.02-.01-.03-.03-.05-.05-.01-.01-.03-.03-.05-.04-.02-.02-.03-.03-.05-.05-.02-.02-.03-.03-.05-.05-.02-.02-.03-.03-.05-.05-.01-.01-.03-.03-.05-.04-.02-.02-.03-.03-.05-.05-.02-.01-.03-.03-.05-.04-.02-.02-.03-.03-.05-.05-.01-.02-.03-.03-.05-.05s-.03-.03-.05-.05c-.02-.02-.03-.03-.05-.05-.02-.01-.03-.03-.04-.05-.02-.02-.03-.03-.05-.05-.02-.02-.03-.03-.05-.05s-.03-.03-.05-.05-.03-.03-.05-.05-.03-.03-.05-.04c-.02-.02-.03-.03-.05-.05s-.03-.03-.05-.05c-.01-.01-.03-.03-.04-.05-.02-.02-.03-.03-.05-.05-.02-.01-.03-.03-.05-.05s-.03-.03-.05-.05-.03-.03-.05-.05c-.01-.02-.03-.03-.05-.04-.02-.02-.03-.03-.05-.05s-.03-.03-.05-.05c-.01-.02-.03-.03-.04-.05s-.03-.03-.05-.05c-.02-.01-.03-.03-.05-.05s-.03-.03-.05-.05c-.02-.01-.03-.03-.04-.05-.02-.01-.03-.03-.05-.04s-.03-.03-.05-.05-.03-.03-.05-.05c-.01-.02-.03-.03-.04-.05-.02-.02-.03-.03-.05-.05-.01-.01-.03-.03-.04-.05-.02-.02-.03-.03-.05-.05-.02-.02-.03-.03-.05-.05-.02-.02-.03-.03-.05-.05-.02-.01-.03-.03-.05-.05-.02-.02-.03-.03-.05-.05-.02-.01-.03-.03-.04-.05-.02-.02-.03-.03-.05-.05-.01-.02-.03-.03-.04-.05s-.03-.03-.05-.05-.03-.03-.05-.05c-.02-.02-.03-.03-.05-.04-.02-.02-.03-.03-.05-.05s-.03-.03-.05-.05-.03-.03-.05-.05-.03-.03-.05-.05-.03-.03-.04-.05-.03-.03-.05-.05-.03-.03-.05-.05c-.01-.01-.03-.03-.05-.04-.02-.02-.03-.03-.05-.05-.01-.02-.03-.03-.05-.05-.02-.01-.03-.03-.05-.05-.02-.02-.03-.03-.05-.05-.01-.02-.03-.03-.04-.05-.01-.01-.03-.03-.05-.04-.01-.02-.03-.03-.05-.05-.01-.02-.03-.03-.05-.05-.02-.02-.03-.03-.05-.05-.01-.02-.03-.03-.05-.05s-.03-.03-.05-.05c-.01-.02-.03-.03-.05-.05-.02-.01-.03-.03-.04-.05-.02-.02-.03-.03-.05-.05-.01-.02-.03-.03-.04-.05-.02-.02-.03-.03-.05-.05-.02-.02-.03-.03-.05-.05-18.78-18.78-43.47-30.54-69.52-33.12-3.88-.39-7.8-.58-11.66-.58-30.55,0-59.91,12.27-81.39,33.83-.01-.01-.02-.02-.04-.04-.03-.03-.06-.06-.09-.09-.03-.03-.06-.06-.09-.09-.03-.03-.06-.06-.09-.09-.03-.03-.06-.06-.09-.09s-.06-.06-.09-.09c-.03-.03-.06-.06-.09-.09-.03-.03-.06-.06-.09-.09-.03-.03-.06-.06-.09-.09s-.06-.06-.09-.09-.06-.06-.09-.09c-.03-.03-.06-.06-.09-.09-.03-.03-.06-.06-.09-.09s-.06-.06-.09-.09c-.03-.03-.06-.06-.09-.09-.03-.03-.06-.06-.09-.09-.03-.03-.06-.06-.09-.09-.03-.03-.06-.06-.09-.09-.03-.03-.06-.06-.09-.09-.03-.03-.06-.06-.09-.09l-.09-.09s-.06-.06-.09-.09c-.03-.03-.06-.06-.09-.09-.03-.03-.06-.06-.09-.09-.03-.03-.06-.06-.09-.09-.03-.03-.06-.06-.09-.09-.03-.03-.06-.06-.09-.09s-.06-.06-.09-.09c-.03-.03-.06-.06-.09-.09-.03-.03-.06-.06-.09-.09-.03-.03-.06-.06-.09-.09-.03-.03-.06-.06-.09-.09l-.09-.09s-.06-.06-.09-.09c-.03-.03-.06-.06-.09-.09-.03-.03-.06-.06-.09-.09-.03-.03-.06-.06-.09-.09-.03-.03-.06-.06-.09-.09-.03-.03-.06-.06-.09-.09-.03-.03-.06-.06-.09-.09-.03-.03-.06-.06-.09-.09-.03-.03-.06-.06-.09-.09-.03-.03-.06-.06-.09-.09-.03-.03-.06-.06-.09-.09-.03-.03-.06-.06-.09-.09-.03-.03-.06-.06-.09-.09s-.06-.06-.09-.09c-.03-.03-.06-.06-.09-.09-.03-.03-.06-.06-.09-.09s-.06-.06-.09-.09c-.03-.03-.06-.06-.09-.09-.03-.03-.06-.06-.09-.09-.03-.03-.06-.06-.09-.09-.03-.03-.06-.06-.09-.09-.03-.03-.06-.06-.09-.09s-.06-.06-.09-.09-.06-.06-.09-.09-.06-.06-.09-.09l-.09-.09s-.06-.06-.09-.09c-.03-.03-.06-.06-.09-.09s-.06-.06-.09-.09c-.03-.03-.06-.06-.09-.09-.03-.03-.06-.06-.09-.09-.03-.03-.06-.06-.09-.09-.03-.03-.06-.06-.09-.09l-.09-.09s-.06-.06-.09-.09-.06-.06-.09-.09c-.03-.03-.06-.06-.09-.09-.03-.03-.06-.06-.09-.09-.03-.03-.06-.06-.09-.09-.03-.03-.06-.06-.09-.09l-.09-.09s-.06-.06-.09-.09c-.03-.03-.06-.06-.09-.09-.03-.03-.06-.06-.09-.09-.03-.03-.06-.06-.09-.09-.03-.03-.06-.06-.09-.09-.03-.03-.06-.06-.09-.09-.03-.03-.06-.06-.09-.09-.03-.03-.06-.06-.09-.09-.03-.03-.06-.06-.09-.09s-.06-.06-.09-.09c-.03-.03-.06-.06-.09-.09l-.09-.09s-.06-.06-.09-.09c-.03-.03-.06-.06-.09-.09-.03-.03-.06-.06-.09-.09-.03-.03-.06-.06-.09-.09-.03-.03-.06-.06-.09-.09-.03-.03-.06-.06-.09-.09-.03-.03-.06-.06-.09-.09-.03-.03-.06-.06-.09-.09s-.06-.06-.09-.09c-.03-.03-.06-.06-.09-.09-.03-.03-.06-.06-.09-.09-.03-.03-.06-.06-.09-.09-.03-.03-.06-.06-.09-.09-.03-.03-.06-.06-.09-.09-.03-.03-.06-.06-.09-.09-.03-.03-.06-.06-.09-.09s-.06-.06-.09-.09c-.03-.03-.06-.06-.09-.09-.03-.03-.06-.06-.09-.09l-.09-.09s-.06-.06-.09-.09c-.03-.03-.06-.06-.09-.09-.03-.03-.06-.06-.09-.09-.03-.03-.06-.06-.09-.09-.03-.03-.06-.06-.09-.09-.03-.03-.06-.06-.09-.09-.03-.03-.06-.06-.09-.09-.03-.03-.06-.06-.09-.09-.03-.03-.06-.06-.09-.09-.03-.03-.06-.06-.09-.09-.03-.03-.06-.06-.09-.09-.03-.03-.06-.06-.09-.09-.03-.03-.06-.06-.09-.09l-.09-.09s-.06-.06-.09-.09c-.03-.03-.06-.06-.09-.09-.03-.03-.06-.06-.09-.09-.03-.03-.06-.06-.09-.09-.03-.03-.06-.06-.09-.09-.03-.03-.06-.06-.09-.09l-.09-.09s-.06-.06-.09-.09-.06-.06-.09-.09c-.03-.03-.06-.06-.09-.09-.03-.03-.06-.06-.09-.09-.03-.03-.06-.06-.09-.09-.03-.03-.06-.06-.09-.09-.03-.03-.06-.06-.09-.09-.03-.03-.06-.06-.09-.09-.03-.03-.06-.06-.09-.09-.03-.03-.06-.06-.09-.09-.03-.03-.06-.06-.09-.09l-.09-.09s-.06-.06-.09-.09c-.03-.03-.06-.06-.09-.09-.03-.03-.06-.06-.09-.09-.03-.03-.06-.06-.09-.09-.03-.03-.06-.06-.09-.09-.03-.03-.06-.06-.09-.09-.03-.03-.06-.06-.09-.09-.03-.03-.06-.06-.09-.09-.03-.03-.06-.06-.09-.09-.03-.03-.06-.06-.09-.09-.03-.03-.06-.06-.09-.09l-.09-.09s-.06-.06-.09-.09c-.03-.03-.06-.06-.09-.09-.03-.03-.06-.06-.09-.09-.03-.03-.06-.06-.09-.09l-.09-.09s-.06-.06-.09-.09c-.03-.03-.06-.06-.09-.09-.03-.03-.06-.06-.09-.09-.03-.03-.06-.06-.09-.09-.03-.03-.06-.06-.09-.09-.03-.03-.06-.06-.09-.09-.03-.03-.06-.06-.09-.09-.03-.03-.06-.06-.09-.09s-.06-.06-.09-.09c-.03-.03-.06-.06-.09-.09-.03-.03-.06-.06-.09-.09s-.06-.06-.09-.09c-.03-.03-.06-.06-.09-.09-.03-.03-.06-.06-.09-.09-.03-.03-.06-.06-.09-.09-.03-.03-.06-.06-.09-.09-.03-.03-.06-.06-.09-.09-.03-.03-.06-.06-.09-.09-.03-.03-.06-.06-.09-.09s-.06-.06-.09-.09c-.03-.03-.06-.06-.09-.09-.03-.03-.06-.06-.09-.09-.03-.03-.06-.06-.09-.09l-.09-.09s-.06-.06-.09-.09c-.03-.03-.06-.06-.09-.09-.03-.03-.06-.06-.09-.09-.03-.03-.06-.06-.09-.09-.03-.03-.06-.06-.09-.09-.03-.03-.06-.06-.09-.09s-.06-.06-.09-.09c-.03-.03-.06-.06-.09-.09-.03-.03-.06-.06-.09-.09-.03-.03-.06-.06-.09-.09-.03-.03-.06-.06-.09-.09l-.09-.09s-.06-.06-.09-.09c-.03-.03-.06-.06-.09-.09-.03-.03-.06-.06-.09-.09-.03-.03-.06-.06-.09-.09-.03-.03-.06-.06-.09-.09-.03-.03-.06-.06-.09-.09s-.06-.06-.09-.09-.06-.06-.09-.09c-.03-.03-.06-.06-.09-.09s-.06-.06-.09-.09c-.03-.03-.06-.06-.09-.09-.03-.03-.06-.06-.09-.09-.03-.03-.06-.06-.09-.09s-.06-.06-.09-.09c-.03-.03-.06-.06-.09-.09-.03-.03-.06-.06-.09-.09s-.06-.06-.09-.09c-.03-.03-.06-.06-.09-.09-.03-.03-.06-.06-.09-.09-.03-.03-.06-.06-.09-.09-.03-.03-.06-.06-.09-.09-.03-.03-.06-.06-.09-.09-.03-.03-.06-.06-.09-.09-.03-.03-.06-.06-.09-.09-.03-.03-.06-.06-.09-.09-.03-.03-.06-.06-.09-.09-.03-.03-.06-.06-.09-.09-.03-.03-.06-.06-.09-.09s-.06-.06-.09-.09c-.03-.03-.06-.06-.09-.09-.03-.03-.06-.06-.09-.09l-.09-.09s-.06-.06-.09-.09l-.09-.09s-.06-.06-.09-.09-.06-.06-.09-.09c-.03-.03-.06-.06-.09-.09-.03-.03-.06-.06-.09-.09-.03-.03-.06-.06-.09-.09-.03-.03-.06-.06-.09-.09l-.09-.09s-.06-.06-.09-.09c-.03-.03-.06-.06-.09-.09-.03-.03-.06-.06-.09-.09-.03-.03-.06-.06-.09-.09-.03-.03-.06-.06-.09-.09-.03-.03-.06-.06-.09-.09-.03-.03-.06-.06-.09-.09-.03-.03-.06-.06-.09-.09-.03-.03-.06-.06-.09-.09-.03-.03-.06-.06-.09-.09-.03-.03-.06-.06-.09-.09l-.09-.09s-.06-.06-.09-.09c-.03-.03-.06-.06-.09-.09-.03-.03-.06-.06-.09-.09s-.06-.06-.09-.09c-.03-.03-.06-.06-.09-.09-.03-.03-.06-.06-.09-.09-.03-.03-.06-.06-.09-.09-.03-.03-.06-.06-.09-.09s-.06-.06-.09-.09c-.03-.03-.06-.06-.09-.09-.03-.03-.06-.06-.09-.09-.03-.03-.06-.06-.09-.09-.03-.03-.06-.06-.09-.09-.03-.03-.06-.06-.09-.09-.03-.03-.06-.06-.09-.09-.03-.03-.06-.06-.09-.09-.03-.03-.06-.06-.09-.09-.03-.03-.06-.06-.09-.09-.03-.03-.06-.06-.09-.09-.03-.03-.06-.06-.09-.09-.03-.03-.06-.06-.09-.09-.03-.03-.06-.06-.09-.09-.03-.03-.06-.06-.09-.09l-.09-.09s-.06-.06-.09-.09c-.03-.03-.06-.06-.09-.09s-.06-.06-.09-.09c-.03-.03-.06-.06-.09-.09l-.09-.09s-.06-.06-.09-.09c-.03-.03-.06-.06-.09-.09-.03-.03-.06-.06-.09-.09-.03-.03-.06-.06-.09-.09l-.09-.09s-.06-.06-.09-.09c-.03-.03-.06-.06-.09-.09-.03-.03-.06-.06-.09-.09-4.79-4.81-11.41-7.79-18.71-7.79H42.21c-14.56,0-26.41,11.85-26.41,26.41v176.92c0,7.3,2.98,13.92,7.79,18.71.03.03.06.06.09.09.03.03.06.06.09.09.03.03.06.06.09.09.03.03.06.06.09.09s.06.06.09.09c.03.03.06.06.09.09.03.03.06.06.09.09.03.03.06.06.09.09.03.03.06.06.09.09l.09.09s.06.06.09.09c.03.03.06.06.09.09.03.03.06.06.09.09.03.03.06.06.09.09.03.03.06.06.09.09l.09.09s.06.06.09.09c.03.03.06.06.09.09.03.03.06.06.09.09s.06.06.09.09c.03.03.06.06.09.09s.06.06.09.09c.03.03.06.06.09.09s.06.06.09.09c.03.03.06.06.09.09s.06.06.09.09.06.06.09.09l.09.09s.06.06.09.09.06.06.09.09c.03.03.06.06.09.09.03.03.06.06.09.09.03.03.06.06.09.09.03.03.06.06.09.09.03.03.06.06.09.09.03.03.06.06.09.09.03.03.06.06.09.09.03.03.06.06.09.09.03.03.06.06.09.09.03.03.06.06.09.09.03.03.06.06.09.09l.09.09s.06.06.09.09l.09.09s.06.06.09.09c.03.03.06.06.09.09.03.03.06.06.09.09.03.03.06.06.09.09.03.03.06.06.09.09s.06.06.09.09l.09.09s.06.06.09.09c.03.03.06.06.09.09l.09.09s.06.06.09.09.06.06.09.09c.03.03.06.06.09.09.03.03.06.06.09.09.03.03.06.06.09.09.03.03.06.06.09.09.03.03.06.06.09.09.03.03.06.06.09.09.03.03.06.06.09.09.03.03.06.06.09.09.03.03.06.06.09.09.03.03.06.06.09.09s.06.06.09.09c.03.03.06.06.09.09.03.03.06.06.09.09.03.03.06.06.09.09.03.03.06.06.09.09s.06.06.09.09c.03.03.06.06.09.09s.06.06.09.09c.03.03.06.06.09.09.03.03.06.06.09.09.03.03.06.06.09.09.03.03.06.06.09.09.03.03.06.06.09.09.03.03.06.06.09.09.03.03.06.06.09.09.03.03.06.06.09.09l.09.09s.06.06.09.09c.03.03.06.06.09.09.03.03.06.06.09.09.03.03.06.06.09.09.03.03.06.06.09.09l.09.09s.06.06.09.09c.03.03.06.06.09.09.03.03.06.06.09.09s.06.06.09.09c.03.03.06.06.09.09s.06.06.09.09c.03.03.06.06.09.09.03.03.06.06.09.09.03.03.06.06.09.09.03.03.06.06.09.09l.09.09s.06.06.09.09l.09.09s.06.06.09.09c.03.03.06.06.09.09.03.03.06.06.09.09.03.03.06.06.09.09.03.03.06.06.09.09s.06.06.09.09c.03.03.06.06.09.09.03.03.06.06.09.09.03.03.06.06.09.09.03.03.06.06.09.09l.09.09s.06.06.09.09c.03.03.06.06.09.09l.09.09.09.09s.06.06.09.09.06.06.09.09c.03.03.06.06.09.09l.09.09.09.09s.06.06.09.09c.03.03.06.06.09.09.03.03.06.06.09.09.03.03.06.06.09.09.03.03.06.06.09.09.03.03.06.06.09.09l.09.09s.06.06.09.09l.09.09s.06.06.09.09c.03.03.06.06.09.09l.09.09s.06.06.09.09.06.06.09.09c.03.03.06.06.09.09.03.03.06.06.09.09.03.03.06.06.09.09s.06.06.09.09l.09.09s.06.06.09.09c.03.03.06.06.09.09.03.03.06.06.09.09s.06.06.09.09c.03.03.06.06.09.09.03.03.06.06.09.09.03.03.06.06.09.09.03.03.06.06.09.09.03.03.06.06.09.09.03.03.06.06.09.09.03.03.06.06.09.09.03.03.06.06.09.09.03.03.06.06.09.09.03.03.06.06.09.09.03.03.06.06.09.09.03.03.06.06.09.09.03.03.06.06.09.09.03.03.06.06.09.09l.09.09s.06.06.09.09l.09.09s.06.06.09.09c.03.03.06.06.09.09.03.03.06.06.09.09s.06.06.09.09c.03.03.06.06.09.09.03.03.06.06.09.09.03.03.06.06.09.09s.06.06.09.09c.03.03.06.06.09.09.03.03.06.06.09.09.03.03.06.06.09.09.03.03.06.06.09.09l.09.09s.06.06.09.09c.03.03.06.06.09.09.03.03.06.06.09.09.03.03.06.06.09.09.03.03.06.06.09.09.03.03.06.06.09.09.03.03.06.06.09.09.03.03.06.06.09.09.03.03.06.06.09.09.03.03.06.06.09.09.03.03.06.06.09.09.03.03.06.06.09.09.03.03.06.06.09.09.03.03.06.06.09.09s.06.06.09.09c.03.03.06.06.09.09s.06.06.09.09c.03.03.06.06.09.09s.06.06.09.09c.03.03.06.06.09.09.03.03.06.06.09.09.03.03.06.06.09.09.03.03.06.06.09.09.03.03.06.06.09.09.03.03.06.06.09.09l.09.09s.06.06.09.09.06.06.09.09c.03.03.06.06.09.09.03.03.06.06.09.09.03.03.06.06.09.09l.09.09.09.09s.06.06.09.09c.03.03.06.06.09.09.03.03.06.06.09.09.03.03.06.06.09.09s.06.06.09.09c.03.03.06.06.09.09.03.03.06.06.09.09.03.03.06.06.09.09.03.03.06.06.09.09s.06.06.09.09c.03.03.06.06.09.09.03.03.06.06.09.09.03.03.06.06.09.09.03.03.06.06.09.09.03.03.06.06.09.09.03.03.06.06.09.09.03.03.06.06.09.09.03.03.06.06.09.09l.09.09s.06.06.09.09c.03.03.06.06.09.09.03.03.06.06.09.09.03.03.06.06.09.09.03.03.06.06.09.09l.09.09s.06.06.09.09c.03.03.06.06.09.09.03.03.06.06.09.09s.06.06.09.09c.03.03.06.06.09.09s.06.06.09.09c.03.03.06.06.09.09s.06.06.09.09c.03.03.06.06.09.09s.06.06.09.09c.03.03.06.06.09.09.03.03.06.06.09.09.03.03.06.06.09.09.03.03.06.06.09.09s.06.06.09.09c.03.03.06.06.09.09.03.03.06.06.09.09.03.03.06.06.09.09.03.03.06.06.09.09.03.03.06.06.09.09.03.03.06.06.09.09.03.03.06.06.09.09.03.03.06.06.09.09.03.03.06.06.09.09s.06.06.09.09l.09.09s.06.06.09.09c.03.03.06.06.09.09.03.03.06.06.09.09-1.39,1.39-2.75,2.81-4.08,4.27-10.64,11.75-18.6,25.28-23.66,40.22-5.28,15.59-7.12,31.92-5.47,48.55,2.58,26.06,14.34,50.75,33.12,69.52.02.01.03.03.05.04s.03.03.05.05c.02.02.03.03.05.05.02.02.03.03.05.05s.03.03.05.05c.02.01.03.03.04.05.01.02.03.03.05.05.02.02.03.03.05.05.02.02.03.03.05.05s.03.03.05.05c.01.02.03.03.05.05.02.01.03.03.05.05.01.02.03.03.05.05s.03.03.05.05c.01.02.03.03.05.05.02.01.03.03.05.05.01.02.03.03.05.05.01.02.03.03.05.05.01.02.03.03.05.04s.03.03.05.05.03.03.05.05c.01.02.03.03.04.05s.03.03.05.05.03.03.04.05c.02.02.03.03.05.04.02.02.03.03.05.05.02.01.03.03.05.04s.03.03.05.05c.02.01.03.03.05.04.02.02.03.03.05.05s.03.03.05.05c.01.02.03.03.04.05.02.01.03.03.05.04.02.02.03.03.05.05.02.01.03.03.05.04.02.02.03.03.05.05.02.01.03.03.05.04.02.02.03.03.05.05.02.01.03.03.05.05s.03.03.05.05c.02.02.03.03.05.05s.03.03.05.05c.01.02.03.03.05.04.02.02.03.03.05.05.02.02.03.03.05.05.02.02.03.03.05.05.02.02.03.03.05.05.02.01.03.03.04.05.02.02.03.03.05.05.02.01.03.03.05.05.02.02.03.03.05.04.02.02.03.03.05.05s.03.03.05.05c.02.01.03.03.05.05.02.02.03.03.05.05s.03.03.04.05.03.03.05.05c.02.01.03.03.05.05.01.02.03.03.05.04.02.02.03.03.05.05s.03.03.05.05c.02.01.03.03.05.05s.03.03.05.05c.01.02.03.03.04.05.02.02.03.03.05.05s.03.03.05.05c.01.02.03.03.05.05.02.02.03.03.05.05.01.02.03.03.05.05s.03.03.05.05c.02.02.03.03.05.05.01.01.03.03.04.05.02.02.03.03.05.05.01.02.03.03.05.05.01.02.03.03.05.04.02.02.03.03.05.05s.03.03.05.05c.01.02.03.03.05.05.01.02.03.03.05.05s.03.03.04.05c.02.02.03.03.05.05.01.02.03.03.04.05.02.01.03.03.05.04s.03.03.05.05.03.03.05.04c.02.02.03.03.05.05s.03.03.05.05.03.03.04.05c.02.02.03.03.05.05.02.02.03.03.05.05.02.01.03.03.05.04.01.02.03.03.05.05s.03.03.05.05c.02.02.03.03.05.05s.03.03.05.05c.02.01.03.03.05.05.01.02.03.03.05.05.02.02.03.03.05.05.02.02.03.03.05.04.02.02.03.03.05.05.01.02.03.03.05.05.02.02.03.03.05.05.02.02.03.03.05.05.02.01.03.03.05.05.01.02.03.03.05.05s.03.03.04.05.03.03.05.04c.02.02.03.03.05.05s.03.03.05.05c.02.02.03.03.05.05s.03.03.05.05c.02.01.03.03.04.05.02.01.03.03.05.05.02.01.03.03.05.05s.03.03.05.05c.02.01.03.03.05.05.02.01.03.03.05.04.01.02.03.03.05.05s.03.03.05.04c.02.02.03.03.05.05.02.01.03.03.05.05.01.02.03.03.04.05.02.01.03.03.05.04.02.02.03.03.05.05.01.01.03.03.05.04.02.02.03.03.05.05.02.01.03.03.05.04s.03.03.04.05c.02.01.03.03.05.05s.03.03.04.05c.02.02.03.03.05.05s.03.03.04.05c.02.02.03.03.05.04.02.02.03.03.05.05s.03.03.05.05c.02.02.03.03.05.05.02.02.03.03.05.05s.03.03.04.05c.02.02.03.03.05.05.02.02.03.03.05.05.02.02.03.03.05.04.02.02.03.03.05.05s.03.03.05.05c.02.01.03.03.05.05s.03.03.05.05.03.03.04.05.03.03.05.04.03.03.05.05c.01.02.03.03.05.05.02.02.03.03.05.05s.03.03.05.04.03.03.05.05c.02.02.03.03.05.05.01.01.03.03.04.05.01.02.03.03.05.05s.03.03.05.05c.01.02.03.03.05.05.02.01.03.03.05.05.01.02.03.03.05.05.01.02.03.03.05.05.02.02.03.03.05.05.02.02.03.03.05.05.01.02.03.03.05.05.01.02.03.03.05.05.01.02.03.03.05.04.02.02.03.03.05.05s.03.03.05.05c.01.02.03.03.04.05s.03.03.05.05.03.03.04.05c.02.02.03.03.05.04.01.02.03.03.04.05.02.01.03.03.05.04s.03.03.05.05c.02.01.03.03.05.04.02.02.03.03.05.05s.03.03.05.05c.01.02.03.03.04.05.02.01.03.03.05.04.02.02.03.03.05.05.02.01.03.03.05.04.02.02.03.03.05.05s.03.03.05.05c.02.02.03.03.05.05s.03.03.05.05c.02.01.03.03.05.05.01.02.03.03.05.05s.03.03.05.05c.01.01.03.03.05.04.02.02.03.03.05.05s.03.03.05.05c.02.02.03.03.05.05.02.02.03.03.05.05.02.01.03.03.04.05.02.02.03.03.05.05.02.01.03.03.05.05.02.02.03.03.05.04.02.02.03.03.05.05s.03.03.05.05c.02.01.03.03.05.05s.03.03.05.05c.01.02.03.03.04.05s.03.03.05.05c.02.01.03.03.05.05s.03.03.05.04c.02.02.03.03.05.05.02.01.03.03.05.05.02.01.03.03.05.05s.03.03.05.05c.01.02.03.03.04.05.02.01.03.03.05.05.02.01.03.03.05.05.01.01.03.03.05.04.02.02.03.03.05.05.02.02.03.03.05.05s.03.03.05.05c.02.02.03.03.05.05.01.01.03.03.04.05.02.02.03.03.05.05s.03.03.05.05c.01.02.03.03.05.05.01.02.03.03.04.05.02.02.03.03.05.04.02.02.03.03.05.05s.03.03.05.05c.01.02.03.03.04.05s.03.03.05.05c.02.02.03.03.04.05.02.02.03.03.05.05.02.02.03.03.05.05.02.01.03.03.05.04s.03.03.05.05.03.03.05.05.03.03.05.05.03.03.05.05.03.03.04.05c.02.01.03.03.05.04s.03.03.05.05c.01.02.03.03.05.05.02.02.03.03.05.05.02.01.03.03.05.04s.03.03.05.05c.02.02.03.03.05.05.01.01.03.03.04.05.02.02.03.03.05.05s.03.03.05.05c.01.02.03.03.05.04.02.02.03.03.05.05.01.02.03.03.05.05s.03.03.05.05c.01.02.03.03.05.05.02.01.03.03.05.05.01.02.03.03.05.05.01.02.03.03.05.05.01.02.03.03.05.04s.03.03.05.05.03.03.05.05.03.03.05.05.03.03.05.05.03.03.04.05.03.03.05.04c.02.02.03.03.05.05.02.01.03.03.05.04.01.02.03.03.05.05s.03.03.05.04c.02.02.03.03.05.05s.03.03.05.05c.01.02.03.03.04.05.02.01.03.03.05.04.02.02.03.03.05.05.01.01.03.03.05.04.02.02.03.03.05.05.02.01.03.03.05.04.02.02.03.03.04.05.02.01.03.03.05.05s.03.03.05.05c.02.02.03.03.05.05s.03.03.04.05c.02.02.03.03.05.04.02.02.03.03.05.05s.03.03.05.05c.02.02.03.03.05.05.02.02.03.03.05.05.02.01.03.03.04.05s.03.03.05.05c.02.01.03.03.05.05.02.02.03.03.05.04.02.02.03.03.05.05s.03.03.05.05c.02.01.03.03.05.05.02.02.03.03.05.05s.03.03.04.05.03.03.05.05c.02.01.03.03.05.05.01.01.03.03.05.04.02.02.03.03.05.05s.03.03.05.04.03.03.05.05c.02.02.03.03.05.05.01.01.03.03.04.05.01.02.03.03.05.05s.03.03.05.05c.01.02.03.03.05.05.02.01.03.03.05.05.01.02.03.03.05.05.01.02.03.03.05.05.02.02.03.03.05.05.02.02.03.03.04.05.02.02.03.03.05.05.01.02.03.03.05.05.01.02.03.03.05.04.02.02.03.03.05.05s.03.03.05.05c.01.02.03.03.05.05.01.02.03.03.05.05s.03.03.04.05c.02.02.03.03.05.05.01.02.03.03.04.05.02.01.03.03.05.04s.03.03.05.05.03.03.05.04c.02.02.03.03.05.05s.03.03.05.05.03.03.04.05c.02.02.03.03.05.05.02.02.03.03.05.05.02.01.03.03.05.04.02.02.03.03.05.05.02.02.03.03.05.05.02.02.03.03.05.05.02.01.03.03.05.04s.03.03.05.05c.01.02.03.03.05.05.02.02.03.03.05.05.02.02.03.03.05.05s.03.03.05.05c.01.02.03.03.05.04.02.02.03.03.05.05s.03.03.05.05.03.03.04.05.03.03.05.05c.02.01.03.03.04.05.02.02.03.03.05.05.02.02.03.03.05.05s.03.03.05.04.03.03.05.05.03.03.05.05c.02.01.03.03.05.05s.03.03.05.05.03.03.04.05.03.03.05.05c.02.01.03.03.05.05.02.01.03.03.05.04.02.02.03.03.05.05s.03.03.05.04c.02.02.03.03.05.05.02.01.03.03.05.05.01.02.03.03.04.05.02.01.03.03.05.04s.03.03.05.05c.01.02.03.03.05.04.02.02.03.03.05.05.01.01.03.03.05.04s.03.03.04.05c.02.02.03.03.05.05.02.01.03.03.04.05.02.02.03.03.05.05.01.02.03.03.04.05.02.02.03.03.05.04.02.02.03.03.05.05s.03.03.05.05c.02.02.03.03.05.05.02.02.03.03.05.05s.03.03.04.05c.02.02.03.03.05.05.02.02.03.03.05.05s.03.03.05.04c.02.02.03.03.05.05s.03.03.05.05c.02.01.03.03.05.05s.03.03.05.05.03.03.04.05.03.03.05.04.03.03.05.05c.01.02.03.03.05.05.02.02.03.03.05.05.02.02.03.03.05.05s.03.03.05.05c.02.02.03.03.05.05.01.01.03.03.04.05.01.02.03.03.05.05s.03.03.05.05c.01.02.03.03.05.04.02.02.03.03.05.05.01.02.03.03.05.05.01.02.03.03.05.05.01.02.03.03.05.05s.03.03.05.05c.01.02.03.03.05.05.01.02.03.03.05.05.01.01.03.03.05.04s.03.03.05.05.03.03.05.05.03.03.05.05.03.03.05.05.03.03.04.05c.02.02.03.03.05.04.02.02.03.03.05.05.02.01.03.03.05.04.01.02.03.03.05.05.02.01.03.03.05.04.02.02.03.03.05.05s.03.03.05.05c.02.02.03.03.05.05.02.01.03.03.05.04.02.02.03.03.05.05.02.01.03.03.05.04.02.02.03.03.05.05s.03.03.05.05c.02.02.03.03.05.05.02.01.03.03.05.05.02.01.03.03.05.05.02.02.03.03.05.05s.03.03.04.05l.05.04s.03.03.05.05.03.03.05.05c.02.02.03.03.05.05.02.02.03.03.05.05.02.01.03.03.04.05.02.02.03.03.05.05.02.01.03.03.05.05.02.02.03.03.05.05.02.02.03.03.05.05s.03.03.05.04.03.03.05.05.03.03.05.05c.02.01.03.03.05.05s.03.03.05.05.03.03.04.05.03.03.05.05c.02.01.03.03.05.05.01.01.03.03.05.04.02.02.03.03.05.05s.03.03.05.05c.02.01.03.03.05.05.02.01.03.03.05.05.01.02.03.03.04.05.02.02.03.03.05.05s.03.03.04.05c.02.02.03.03.05.05s.03.03.05.05c.01.02.03.03.05.05.01.02.03.03.04.05.02.02.03.03.05.05.02.01.03.03.05.05.01.02.03.03.05.05.01.02.03.03.04.05.02.02.03.03.05.04.02.02.03.03.05.05s.03.03.05.05c.01.02.03.03.04.05s.03.03.05.05.03.03.04.05c.02.02.03.03.05.04.02.02.03.03.05.05.02.01.03.03.05.04s.03.03.05.05.03.03.05.04c.02.02.03.03.05.05.02.02.03.03.05.05.01.02.03.03.04.05.02.01.03.03.05.04s.03.03.05.05c.01.02.03.03.05.05.02.02.03.03.05.05.02.01.03.03.05.04s.03.03.05.05c.02.02.03.03.05.05.02.02.03.03.05.05.02.02.03.03.05.05s.03.03.05.05c.01.02.03.03.05.04.02.02.03.03.05.05.01.02.03.03.05.05s.03.03.04.05.03.03.05.05c.02.01.03.03.05.05.01.02.03.03.05.05.01.02.03.03.04.05s.03.03.05.04.03.03.05.05.03.03.05.05.03.03.05.05.03.03.05.05.03.03.04.05.03.03.05.04c.02.02.03.03.05.05.02.01.03.03.05.04.02.02.03.03.05.05s.03.03.05.04c.02.02.03.03.05.05s.03.03.05.05c.01.02.03.03.04.05.02.01.03.03.05.04s.03.03.05.05c.01.01.03.03.05.04.02.02.03.03.05.05.02.01.03.03.05.04s.03.03.04.05c.02.02.03.03.05.05.02.01.03.03.04.05.02.02.03.03.05.05.02.02.03.03.05.05.02.02.03.03.05.04.02.02.03.03.05.05s.03.03.05.05c.02.02.03.03.05.05.02.02.03.03.05.05s.03.03.04.05.03.03.05.05c.02.01.03.03.05.05.02.02.03.03.05.04.02.02.03.03.05.05s.03.03.05.05c.02.01.03.03.05.05s.03.03.05.05.03.03.04.05.03.03.05.05c.02.01.03.03.05.05.01.01.03.03.05.04.02.02.03.03.05.05.02.02.03.03.05.05s.03.03.05.05c.02.02.03.03.05.05.01.01.03.03.04.05.01.02.03.03.05.05s.03.03.05.05c.01.02.03.03.05.05s.03.03.05.05c.01.02.03.03.05.05.02.01.03.03.05.05.01.02.03.03.05.05s.03.03.04.05.03.03.05.05c.02.01.03.03.05.05.01.02.03.03.05.05.01.02.03.03.04.05s.03.03.05.04.03.03.05.05c.01.02.03.03.05.05.01.02.03.03.04.05s.03.03.05.05.03.03.04.05c.02.01.03.03.05.05s.03.03.05.05c.02.01.03.03.05.04s.03.03.05.05c.02.01.03.03.05.04.02.02.03.03.05.05s.03.03.05.05c.01.02.03.03.04.05.02.01.03.03.05.04.02.02.03.03.05.05.02.02.03.03.05.04.02.02.03.03.05.05.02.01.03.03.05.04s.03.03.05.05c.01.02.03.03.05.05s.03.03.05.05c.02.02.03.03.05.05s.03.03.05.05c.01.02.03.03.05.04.02.02.03.03.05.05.02.02.03.03.05.05.02.02.03.03.05.05s.03.03.05.05c.02.01.03.03.04.05.02.02.03.03.05.05.02.02.03.03.05.05s.03.03.05.04.03.03.05.05.03.03.05.05c.02.01.03.03.05.05s.03.03.05.05.03.03.04.05.03.03.05.05c.02.01.03.03.05.05.01.01.03.03.05.04.02.02.03.03.05.05s.03.03.05.04c.02.02.03.03.05.05.02.01.03.03.05.05.01.02.03.03.04.05.02.02.03.03.05.05s.03.03.04.05c.02.02.03.03.05.05s.03.03.05.05c.01.02.03.03.05.05s.03.03.04.05c.02.02.03.03.05.05.02.01.03.03.04.05.02.02.03.03.05.05.01.02.03.03.04.05.02.02.03.03.05.04.02.02.03.03.05.05s.03.03.05.05c.02.02.03.03.05.05.02.02.03.03.05.05s.03.03.04.05c.02.02.03.03.05.05s.03.03.05.05c.02.01.03.03.05.04s.03.03.05.05.03.03.05.04c.02.02.03.03.05.05.02.02.03.03.05.05s.03.03.04.05.03.03.05.04.03.03.05.05c.01.02.03.03.05.05.02.01.03.03.05.05s.03.03.05.05.03.03.05.05c.02.02.03.03.05.05.02.01.03.03.05.05.01.02.03.03.05.05s.03.03.05.05c.01.02.03.03.05.04.02.02.03.03.05.05.01.02.03.03.05.05.01.02.03.03.05.05.01.02.03.03.05.05s.03.03.05.05c.01.02.03.03.05.05.01.02.03.03.04.05.02.01.03.03.05.04s.03.03.05.05.03.03.05.05.03.03.05.05.03.03.05.05.03.03.04.05c.02.02.03.03.05.04.02.02.03.03.05.05.02.01.03.03.05.05.02.01.03.03.05.05.02.01.03.03.05.04.01.02.03.03.05.05.02.01.03.03.05.05.02.01.03.03.05.05.02.01.03.03.05.05.01.02.03.03.04.05.02.01.03.03.05.04.02.02.03.03.05.05.01.02.03.03.05.05s.03.03.05.05c.02.01.03.03.05.04s.03.03.04.05c.02.02.03.03.05.05s.03.03.04.05c.02.02.03.03.05.05s.03.03.04.05.03.03.05.04c.02.02.03.03.05.05s.03.03.05.05c.01.02.03.03.04.05s.03.03.05.05c.02.02.03.03.04.05.02.02.03.03.05.05.02.02.03.03.05.05s.03.03.05.04.03.03.05.05.03.03.05.05c.02.01.03.03.05.05s.03.03.05.05.03.03.04.05.03.03.05.04.03.03.05.05c.01.02.03.03.05.05.02.02.03.03.05.05.01.02.03.03.05.04s.03.03.05.05.03.03.05.05c.01.01.03.03.04.05.01.02.03.03.05.05s.03.03.04.05c.02.02.03.03.05.05.02.01.03.03.05.05.01.02.03.03.05.05s.03.03.04.05c.02.02.03.03.05.05.02.01.03.03.05.05.01.02.03.03.05.05.01.02.03.03.04.05s.03.03.05.04c.02.02.03.03.05.05s.03.03.05.05c.01.02.03.03.04.05s.03.03.05.05.03.03.04.05c.02.02.03.03.05.04.02.02.03.03.05.05.02.01.03.03.05.04s.03.03.05.05c.02.01.03.03.05.04.02.02.03.03.05.05.02.02.03.03.05.05.01.02.03.03.04.05.02.01.03.03.05.04.02.02.03.03.05.05.01.02.03.03.05.04.02.02.03.03.05.05.02.01.03.03.05.04s.03.03.05.05c.01.02.03.03.05.05s.03.03.05.05c.02.02.03.03.05.05s.03.03.05.05c.01.02.03.03.05.04s.03.03.05.05c.02.02.03.03.05.05.02.02.03.03.05.05s.03.03.05.05c.02.01.03.03.04.05.02.02.03.03.05.05.02.01.03.03.05.05s.03.03.05.04.03.03.05.05.03.03.05.05c.02.01.03.03.05.05s.03.03.05.05.03.03.04.05.03.03.05.04c.02.02.03.03.05.05.02.01.03.03.05.04.02.02.03.03.05.05s.03.03.05.04c.02.02.03.03.05.05.02.01.03.03.05.05.01.02.03.03.04.05.02.01.03.03.05.04s.03.03.04.05l.05.04s.03.03.05.05.03.03.05.05.03.03.04.05c.02.02.03.03.05.05.02.01.03.03.04.05.02.02.03.03.05.05.02.02.03.03.05.05.02.02.03.03.05.05.01.02.03.03.04.05.02.02.03.03.05.04.02.02.03.03.05.05s.03.03.05.05c.01.02.03.03.04.05s.03.03.05.05c.02.02.03.03.04.05.02.02.03.03.05.05.02.02.03.03.05.05.02.01.03.03.05.04s.03.03.05.05.03.03.05.05.03.03.05.05.03.03.05.05.03.03.04.05c.02.02.03.03.05.05.02.02.03.03.05.05.02.02.03.03.05.05.02.02.03.03.05.05.01.02.03.03.05.05s.03.03.05.05c.02.02.03.03.05.05.01.01.03.03.04.05.01.02.03.03.05.05s.03.03.05.05c.01.02.03.03.05.04.02.02.03.03.05.05.01.02.03.03.05.05s.03.03.04.05.03.03.05.05c.02.01.03.03.05.05.01.02.03.03.05.05.01.02.03.03.04.05s.03.03.05.04.03.03.05.05.03.03.05.05.03.03.05.05.03.03.05.05c.01.02.03.03.04.05.02.01.03.03.05.05.02.01.03.03.05.05.02.01.03.03.05.04.01.02.03.03.05.05.02.01.03.03.05.04.02.02.03.03.05.05s.03.03.05.05c.01.02.03.03.04.05.02.01.03.03.05.04.02.02.03.03.05.05.01.02.03.03.05.04.02.02.03.03.05.05.02.01.03.03.05.04s.03.03.04.05c.02.02.03.03.05.05s.03.03.05.05c.02.02.03.03.05.05s.03.03.04.05.03.03.05.04c.02.02.03.03.05.05s.03.03.05.05c.02.02.03.03.05.05s.03.03.05.05c.02.01.03.03.04.05.02.02.03.03.05.05.02.02.03.03.05.05s.03.03.05.04c.02.02.03.03.05.05s.03.03.05.05c.02.01.03.03.05.05s.03.03.05.05.03.03.04.05.03.03.05.05c.02.01.03.03.05.05.01.01.03.03.05.04.02.02.03.03.05.05s.03.03.05.04.03.03.05.05.03.03.05.05c.01.01.03.03.04.05.01.02.03.03.05.05s.03.03.04.05c.02.02.03.03.05.05.02.01.03.03.05.05.01.02.03.03.05.05.01.02.03.03.04.05.02.02.03.03.05.05.02.02.03.03.05.05.01.02.03.03.05.05.01.02.03.03.04.05.02.02.03.03.05.04.02.02.03.03.05.05s.03.03.05.05c.02.02.03.03.05.05s.03.03.05.05.03.03.04.05c.02.02.03.03.05.05s.03.03.05.05c18.78,18.78,43.47,30.54,69.52,33.12,3.88.38,7.8.58,11.66.58,30.7,0,60.19-12.4,81.7-34.15l.09.09.09.09.09.09s.06.06.09.09c.03.03.06.06.09.09l.09.09s.06.06.09.09c.03.03.06.06.09.09s.06.06.09.09c.03.03.06.06.09.09.03.03.06.06.09.09l.09.09s.06.06.09.09c.03.03.06.06.09.09l.09.09s.06.06.09.09.06.06.09.09l.09.09.09.09.09.09s.06.06.09.09c.03.03.06.06.09.09.03.03.06.06.09.09l.09.09.09.09s.06.06.09.09l.09.09s.06.06.09.09c.03.03.06.06.09.09l.09.09s.06.06.09.09.06.06.09.09.06.06.09.09c.03.03.06.06.09.09.03.03.06.06.09.09.03.03.06.06.09.09l.09.09s.06.06.09.09c.03.03.06.06.09.09.03.03.06.06.09.09.03.03.06.06.09.09s.06.06.09.09l.09.09s.06.06.09.09l.09.09.09.09s.06.06.09.09c.03.03.06.06.09.09.03.03.06.06.09.09l.09.09s.06.06.09.09c.03.03.06.06.09.09l.09.09s.06.06.09.09c.03.03.06.06.09.09.03.03.06.06.09.09l.09.09s.06.06.09.09l.09.09.09.09s.06.06.09.09l.09.09s.06.06.09.09c.03.03.06.06.09.09.03.03.06.06.09.09l.09.09.09.09.09.09.09.09s.06.06.09.09c.03.03.06.06.09.09.03.03.06.06.09.09.03.03.06.06.09.09l.09.09.09.09.09.09s.06.06.09.09.06.06.09.09c.03.03.06.06.09.09.03.03.06.06.09.09.03.03.06.06.09.09l.09.09s.06.06.09.09c.03.03.06.06.09.09s.06.06.09.09c.03.03.06.06.09.09s.06.06.09.09.06.06.09.09.06.06.09.09.06.06.09.09c.03.03.06.06.09.09.03.03.06.06.09.09.03.03.06.06.09.09l.09.09.09.09s.06.06.09.09c.03.03.06.06.09.09l.09.09s.06.06.09.09l.09.09s.06.06.09.09c.03.03.06.06.09.09s.06.06.09.09.06.06.09.09l.09.09s.06.06.09.09c.03.03.06.06.09.09.03.03.06.06.09.09s.06.06.09.09c.03.03.06.06.09.09s.06.06.09.09c.03.03.06.06.09.09.03.03.06.06.09.09.03.03.06.06.09.09l.09.09.09.09.09.09.09.09.09.09.09.09s.06.06.09.09c.03.03.06.06.09.09.03.03.06.06.09.09l.09.09s.06.06.09.09c.03.03.06.06.09.09s.06.06.09.09c.03.03.06.06.09.09.03.03.06.06.09.09.03.03.06.06.09.09.03.03.06.06.09.09.03.03.06.06.09.09l.09.09s.06.06.09.09c.03.03.06.06.09.09.03.03.06.06.09.09l.09.09s.06.06.09.09l.09.09.09.09.09.09.09.09s.06.06.09.09c.03.03.06.06.09.09.03.03.06.06.09.09l.09.09.09.09s.06.06.09.09l.09.09s.06.06.09.09.06.06.09.09c.03.03.06.06.09.09.03.03.06.06.09.09.03.03.06.06.09.09l.09.09s.06.06.09.09c.03.03.06.06.09.09.03.03.06.06.09.09.03.03.06.06.09.09s.06.06.09.09l.09.09.09.09s.06.06.09.09c.03.03.06.06.09.09.03.03.06.06.09.09.03.03.06.06.09.09l.09.09.09.09s.06.06.09.09c.03.03.06.06.09.09.03.03.06.06.09.09s.06.06.09.09l.09.09s.06.06.09.09l.09.09.09.09.09.09s.06.06.09.09c.03.03.06.06.09.09l.09.09s.06.06.09.09c.03.03.06.06.09.09.03.03.06.06.09.09s.06.06.09.09c.03.03.06.06.09.09l.09.09.09.09s.06.06.09.09l.09.09s.06.06.09.09c.03.03.06.06.09.09l.09.09s.06.06.09.09c.03.03.06.06.09.09.03.03.06.06.09.09.03.03.06.06.09.09l.09.09s.06.06.09.09c.03.03.06.06.09.09s.06.06.09.09c.03.03.06.06.09.09.03.03.06.06.09.09.03.03.06.06.09.09.03.03.06.06.09.09.03.03.06.06.09.09.03.03.06.06.09.09s.06.06.09.09.06.06.09.09c.03.03.06.06.09.09.03.03.06.06.09.09.03.03.06.06.09.09l.09.09s.06.06.09.09c.03.03.06.06.09.09.03.03.06.06.09.09l.09.09.09.09s.06.06.09.09l.09.09s.06.06.09.09.06.06.09.09l.09.09s.06.06.09.09.06.06.09.09c.03.03.06.06.09.09.03.03.06.06.09.09.03.03.06.06.09.09.03.03.06.06.09.09s.06.06.09.09c.03.03.06.06.09.09.03.03.06.06.09.09.03.03.06.06.09.09.03.03.06.06.09.09l.09.09.09.09s.06.06.09.09l.09.09.09.09s.06.06.09.09c.03.03.06.06.09.09.03.03.06.06.09.09l.09.09s.06.06.09.09c.03.03.06.06.09.09s.06.06.09.09l.09.09s.06.06.09.09c.03.03.06.06.09.09.03.03.06.06.09.09l.09.09.09.09s.06.06.09.09c.03.03.06.06.09.09.03.03.06.06.09.09l.09.09s.06.06.09.09l.09.09s.06.06.09.09l.09.09.09.09s.06.06.09.09l.09.09s.06.06.09.09c.03.03.06.06.09.09l.09.09s.06.06.09.09l.09.09s.06.06.09.09c.03.03.06.06.09.09.03.03.06.06.09.09.03.03.06.06.09.09.03.03.06.06.09.09.03.03.06.06.09.09.03.03.06.06.09.09.03.03.06.06.09.09.03.03.06.06.09.09l.09.09s.06.06.09.09l.09.09.09.09s.06.06.09.09c.03.03.06.06.09.09.03.03.06.06.09.09l.09.09c4.79,4.81,11.4,7.79,18.71,7.79h174.56c14.56,0,26.41-11.85,26.41-26.41v-176.92c0-7.3-2.98-13.92-7.79-18.71-.03-.03-.06-.06-.09-.09Z"></path>
  <path class="b" d="M32.82,218.92c0,5.17,4.23,9.39,9.39,9.39h174.56c5.17,0,9.39-4.23,9.39-9.39V42c0-5.17-4.23-9.39-9.39-9.39H42.21c-5.17,0-9.39,4.23-9.39,9.39v176.92Z"></path>
  <path d="M94.74,68.06c0-.62.22-1.15.65-1.57.43-.44.94-.65,1.56-.65h28.81c11.54,0,20.6,2.95,27.17,8.86,6.56,5.9,9.85,14.52,9.85,25.85,0,12.67-4.45,21.72-13.32,27.14-.6.37-.72.73-.37,1.1,4.74,3.08,8.46,7.2,11.13,12.38,2.67,5.17,4.01,11.32,4.01,18.46,0,11.32-3.25,20.06-9.75,26.21-6.51,6.15-14.99,9.22-25.45,9.22h-32.09c-.62,0-1.13-.21-1.56-.65-.43-.43-.65-.94-.65-1.56v-124.8ZM116.81,176.42h10.57c4.88,0,8.69-1.73,11.5-5.17,2.79-3.45,4.19-8.31,4.19-14.58s-1.4-11.43-4.19-15.05c-2.81-3.63-6.62-5.45-11.5-5.45h-10.57c-.6,0-.91.31-.91.93v38.4c0,.62.31.93.91.93ZM116.81,120.49h9.31c4.98,0,8.87-1.54,11.66-4.63,2.81-3.07,4.2-7.43,4.2-13.1s-1.4-10.47-4.2-13.66c-2.79-3.2-6.68-4.8-11.66-4.8h-9.31c-.6,0-.91.31-.91.91v34.35c0,.62.31.93.91.93Z"></path>
  <path class="b" d="M246.26,431.68c0,5.17,4.23,9.39,9.39,9.39h174.56c5.17,0,9.39-4.23,9.39-9.39v-176.92c0-5.17-4.23-9.39-9.39-9.39h-174.56c-5.17,0-9.39,4.23-9.39,9.39v176.92Z"></path>
  <path d="M308.18,280.82c0-.62.22-1.15.65-1.57.43-.44.94-.65,1.56-.65h28.81c11.54,0,20.6,2.95,27.17,8.86,6.56,5.9,9.85,14.52,9.85,25.85,0,12.67-4.45,21.72-13.32,27.14-.6.37-.72.73-.37,1.1,4.74,3.08,8.46,7.2,11.13,12.38,2.67,5.17,4.01,11.32,4.01,18.46,0,11.32-3.25,20.06-9.75,26.21-6.51,6.15-14.99,9.22-25.45,9.22h-32.09c-.62,0-1.13-.21-1.56-.65-.43-.43-.65-.94-.65-1.56v-124.8ZM330.25,389.19h10.57c4.88,0,8.69-1.73,11.5-5.17,2.79-3.45,4.19-8.31,4.19-14.58s-1.4-11.43-4.19-15.05c-2.81-3.63-6.62-5.45-11.5-5.45h-10.57c-.6,0-.91.31-.91.93v38.4c0,.62.31.93.91.93ZM330.25,333.25h9.31c4.98,0,8.87-1.54,11.66-4.63,2.81-3.07,4.2-7.43,4.2-13.1s-1.4-10.47-4.2-13.66c-2.79-3.2-6.68-4.8-11.66-4.8h-9.31c-.6,0-.91.31-.91.91v34.35c0,.62.31.93.91.93Z"></path>
  <path class="b" d="M128.94,245.36c-54.05,0-97.87,43.82-97.87,97.87s43.82,97.87,97.87,97.87,97.87-43.82,97.87-97.87-43.82-97.87-97.87-97.87Z"></path>
  <path class="b" d="M342.38,32.61c-54.05,0-97.87,43.82-97.87,97.87s43.82,97.87,97.87,97.87,97.87-43.82,97.87-97.87-43.82-97.87-97.87-97.87Z"></path>
  <path d="M345.9,120.24c-7.93-2.44-15.76-5.24-23.48-8.33-11.53-17.45,28.43-31.97,16.48-47.54,7.7,3.08,15.54,5.9,23.47,8.33,9.82,17.74-24.69,29.8-16.46,47.54Z"></path>
  <path class="b" d="M129.28,441.44c54.05,0,97.87-43.82,97.87-97.87,0-54.05-43.82-97.87-97.87-97.87-54.05,0-97.87,43.82-97.87,97.87,0,54.05,43.82,97.87,97.87,97.87Z"></path>
  <path d="M125.76,353.8c7.93,2.44,15.76,5.24,23.48,8.33,11.53,17.45-28.43,31.97-16.48,47.54-7.7-3.08-15.54-5.9-23.47-8.33-9.82-17.74,24.69-29.8,16.46-47.54Z"></path>
</svg>
